<svg xmlns="http://www.w3.org/2000/svg" width="600" height="400" viewBox="0 0 600 400" fill="none">
  <defs>
    <linearGradient id="ge" x1="0" y1="0" x2="600" y2="400" gradientUnits="userSpaceOnUse">
      <stop stop-color="#FFF7ED"/>
      <stop offset="1" stop-color="#FED7AA"/>
    </linearGradient>
  </defs>
  <rect width="600" height="400" rx="24" fill="url(#ge)"/>
  <rect x="36" y="32" width="280" height="18" rx="9" fill="#9a3412" fill-opacity="0.15"/>
  <rect x="36" y="58" width="400" height="12" rx="6" fill="#c2410c" fill-opacity="0.2"/>
  <rect x="48" y="84" width="504" height="300" rx="16" fill="white" fill-opacity="0.95" stroke="#FDBA74"/>
  <rect x="72" y="104" width="200" height="160" rx="12" fill="#FFF7ED" stroke="#FDBA74"/>
  <rect x="92" y="124" width="100" height="10" rx="5" fill="#9a3412" fill-opacity="0.25"/>
  <rect x="92" y="142" width="140" height="8" rx="4" fill="#57534e" fill-opacity="0.2"/>
  <rect x="296" y="104" width="232" height="24" rx="8" fill="#EA580C" fill-opacity="0.2"/>
  <rect x="308" y="112" width="160" height="10" rx="5" fill="#9a3412" fill-opacity="0.2"/>
  <rect x="296" y="136" width="180" height="10" rx="5" fill="#9CA3AF" fill-opacity="0.5"/>
  <rect x="296" y="156" width="140" height="36" rx="10" fill="#EA580C"/>
  <rect x="336" y="172" width="60" height="8" rx="4" fill="white" fill-opacity="0.4"/>
  <rect x="72" y="280" width="456" height="48" rx="12" fill="#FFEDD5"/>
  <rect x="88" y="298" width="380" height="12" rx="6" fill="#9a3412" fill-opacity="0.25"/>
  <rect x="72" y="344" width="420" height="10" rx="5" fill="#c2410c" fill-opacity="0.25"/>
</svg>
