<svg xmlns="http://www.w3.org/2000/svg" width="600" height="400" viewBox="0 0 600 400" fill="none">
  <defs>
    <linearGradient id="accH" x1="0" y1="0" x2="600" y2="400">
      <stop stop-color="#f0f9ff"/>
      <stop offset="1" stop-color="#e0f2fe"/>
    </linearGradient>
  </defs>
  <rect width="600" height="400" rx="24" fill="url(#accH)"/>
  <rect x="40" y="40" width="520" height="48" rx="12" fill="white" stroke="#38bdf8" stroke-width="2"/>
  <rect x="56" y="56" width="200" height="14" rx="7" fill="#0ea5e9" fill-opacity="0.25"/>
  <rect x="40" y="108" width="340" height="252" rx="14" fill="white" stroke="#7dd3fc"/>
  <rect x="56" y="128" width="120" height="10" rx="5" fill="#64748b" fill-opacity="0.3"/>
  <rect x="56" y="152" width="308" height="12" rx="6" fill="#0c4a6e" fill-opacity="0.12"/>
  <rect x="56" y="176" width="280" height="12" rx="6" fill="#0c4a6e" fill-opacity="0.12"/>
  <rect x="56" y="200" width="300" height="12" rx="6" fill="#0c4a6e" fill-opacity="0.12"/>
  <rect x="56" y="240" width="100" height="36" rx="8" fill="#bae6fd"/>
  <rect x="396" y="108" width="164" height="120" rx="12" fill="#e0f2fe" stroke="#38bdf8"/>
  <rect x="412" y="124" width="100" height="10" rx="5" fill="#0284c7" fill-opacity="0.3"/>
  <rect x="412" y="146" width="132" height="8" rx="4" fill="#64748b" fill-opacity="0.25"/>
  <rect x="396" y="244" width="164" height="116" rx="12" fill="#f8fafc" stroke="#94a3b8"/>
  <rect x="412" y="260" width="80" height="10" rx="5" fill="#64748b" fill-opacity="0.3"/>
</svg>
