<svg xmlns="http://www.w3.org/2000/svg" width="500" height="400" viewBox="0 0 500 400" fill="none">
  <rect width="500" height="400" rx="20" fill="#f8fafc"/>
  <rect x="48" y="40" width="404" height="320" rx="14" fill="white" stroke="#cbd5e1"/>
  <rect x="64" y="60" width="140" height="10" rx="5" fill="#0ea5e9" fill-opacity="0.3"/>
  <line x1="64" y1="88" x2="436" y2="88" stroke="#e2e8f0"/>
  <rect x="64" y="104" width="80" height="8" rx="4" fill="#64748b" fill-opacity="0.35"/>
  <rect x="200" y="104" width="100" height="8" rx="4" fill="#64748b" fill-opacity="0.35"/>
  <rect x="340" y="104" width="80" height="8" rx="4" fill="#64748b" fill-opacity="0.35"/>
  <rect x="64" y="128" width="360" height="10" rx="5" fill="#0f172a" fill-opacity="0.08"/>
  <rect x="64" y="148" width="320" height="10" rx="5" fill="#0f172a" fill-opacity="0.08"/>
  <rect x="64" y="168" width="340" height="10" rx="5" fill="#0f172a" fill-opacity="0.08"/>
  <rect x="64" y="208" width="360" height="10" rx="5" fill="#0ea5e9" fill-opacity="0.15"/>
  <rect x="64" y="228" width="300" height="10" rx="5" fill="#0ea5e9" fill-opacity="0.15"/>
  <rect x="64" y="300" width="200" height="12" rx="6" fill="#0284c7" fill-opacity="0.25"/>
</svg>
