<svg xmlns="http://www.w3.org/2000/svg" width="600" height="400" viewBox="0 0 600 400" fill="none">
  <defs>
    <linearGradient id="invyH" x1="0" y1="0" x2="600" y2="400">
      <stop stop-color="#fffbeb"/>
      <stop offset="1" stop-color="#fef3c7"/>
    </linearGradient>
  </defs>
  <rect width="600" height="400" rx="24" fill="url(#invyH)"/>
  <rect x="48" y="56" width="200" height="140" rx="12" fill="white" stroke="#fbbf24"/>
  <rect x="64" y="76" width="100" height="10" rx="5" fill="#d97706" fill-opacity="0.35"/>
  <rect x="64" y="100" width="160" height="8" rx="4" fill="#78716c" fill-opacity="0.2"/>
  <rect x="64" y="140" width="56" height="40" rx="6" fill="#fde68a"/>
  <rect x="128" y="140" width="56" height="40" rx="6" fill="#fde68a"/>
  <rect x="192" y="140" width="40" height="40" rx="6" fill="#f59e0b" fill-opacity="0.5"/>
  <rect x="268" y="56" width="284" height="288" rx="16" fill="white" stroke="#fcd34d"/>
  <rect x="288" y="80" width="180" height="12" rx="6" fill="#b45309" fill-opacity="0.2"/>
  <rect x="288" y="108" width="244" height="10" rx="5" fill="#44403c" fill-opacity="0.12"/>
  <rect x="288" y="132" width="220" height="10" rx="5" fill="#44403c" fill-opacity="0.12"/>
  <rect x="288" y="180" width="100" height="72" rx="10" fill="#fff7ed" stroke="#fdba74"/>
  <rect x="404" y="180" width="100" height="72" rx="10" fill="#fff7ed" stroke="#fdba74"/>
  <rect x="288" y="272" width="216" height="44" rx="10" fill="#fef3c7"/>
</svg>
