<svg xmlns="http://www.w3.org/2000/svg" width="500" height="400" viewBox="0 0 500 400" fill="none">
  <rect width="500" height="400" rx="20" fill="#F0FDFA"/>
  <rect x="48" y="32" width="200" height="16" rx="8" fill="#0f766e" fill-opacity="0.2"/>
  <rect x="48" y="56" width="360" height="10" rx="5" fill="#64748b" fill-opacity="0.35"/>
  <rect x="48" y="84" width="404" height="288" rx="14" fill="white" stroke="#99F6E4"/>
  <rect x="72" y="108" width="356" height="32" rx="8" fill="#0D9488" fill-opacity="0.12"/>
  <rect x="200" y="120" width="100" height="10" rx="5" fill="#134e4a" fill-opacity="0.2"/>
  <g fill="#0D9488" fill-opacity="0.35">
    <rect x="80" y="160" width="44" height="36" rx="6"/>
    <rect x="132" y="160" width="44" height="36" rx="6"/>
    <rect x="184" y="160" width="44" height="36" rx="6"/>
    <rect x="236" y="160" width="44" height="36" rx="6"/>
    <rect x="288" y="160" width="44" height="36" rx="6"/>
    <rect x="340" y="160" width="44" height="36" rx="6"/>
  </g>
  <rect x="236" y="160" width="44" height="36" rx="6" fill="#0D9488"/>
  <rect x="72" y="220" width="360" height="10" rx="5" fill="#475569" fill-opacity="0.25"/>
  <rect x="72" y="332" width="320" height="10" rx="5" fill="#0d9488" fill-opacity="0.3"/>
</svg>
