<svg xmlns="http://www.w3.org/2000/svg" width="500" height="400" viewBox="0 0 500 400" fill="none">
  <rect width="500" height="400" rx="20" fill="#FAFAF9"/>
  <rect x="200" y="28" width="100" height="12" rx="6" fill="#0f766e" fill-opacity="0.2"/>
  <rect x="140" y="52" width="220" height="300" rx="20" fill="white" stroke="#5EEAD4" stroke-width="2"/>
  <circle cx="250" cy="120" r="36" fill="#99F6E4"/>
  <path d="M190 220c20-40 100-40 120 0v48H190v-48z" fill="#CCFBF1"/>
  <rect x="200" y="188" width="100" height="10" rx="5" fill="#134e4a" fill-opacity="0.2"/>
  <rect x="210" y="206" width="80" height="8" rx="4" fill="#64748b" fill-opacity="0.25"/>
  <rect x="168" y="236" width="164" height="10" rx="5" fill="#E7E5E4"/>
  <rect x="168" y="254" width="120" height="10" rx="5" fill="#E7E5E4"/>
  <rect x="168" y="284" width="100" height="10" rx="5" fill="#0d9488" fill-opacity="0.25"/>
  <rect x="168" y="302" width="180" height="8" rx="4" fill="#334155" fill-opacity="0.15"/>
  <rect x="168" y="328" width="200" height="8" rx="4" fill="#64748b" fill-opacity="0.2"/>
</svg>
