<svg xmlns="http://www.w3.org/2000/svg" width="600" height="400" viewBox="0 0 600 400" fill="none">
  <defs>
    <linearGradient id="gh" x1="0" y1="0" x2="600" y2="400" gradientUnits="userSpaceOnUse">
      <stop stop-color="#F0FDFA"/>
      <stop offset="1" stop-color="#CCFBF1"/>
    </linearGradient>
  </defs>
  <rect width="600" height="400" rx="24" fill="url(#gh)"/>
  <rect x="36" y="32" width="280" height="18" rx="9" fill="#0f766e" fill-opacity="0.15"/>
  <rect x="36" y="58" width="400" height="12" rx="6" fill="#0d9488" fill-opacity="0.2"/>
  <rect x="48" y="84" width="504" height="300" rx="16" fill="white" fill-opacity="0.95" stroke="#5EEAD4"/>
  <rect x="72" y="104" width="456" height="48" rx="10" fill="#CCFBF1"/>
  <rect x="88" y="120" width="380" height="14" rx="7" fill="#134e4a" fill-opacity="0.15"/>
  <rect x="72" y="168" width="220" height="140" rx="12" fill="#F0FDFA" stroke="#5EEAD4"/>
  <rect x="88" y="188" width="120" height="10" rx="5" fill="#0f766e" fill-opacity="0.25"/>
  <rect x="88" y="208" width="160" height="8" rx="4" fill="#475569" fill-opacity="0.2"/>
  <rect x="88" y="228" width="100" height="8" rx="4" fill="#059669" fill-opacity="0.3"/>
  <rect x="312" y="168" width="216" height="64" rx="12" fill="#ECFEFF" stroke="#22D3EE"/>
  <rect x="328" y="186" width="140" height="10" rx="5" fill="#0e7490" fill-opacity="0.25"/>
  <rect x="328" y="204" width="180" height="8" rx="4" fill="#334155" fill-opacity="0.15"/>
  <rect x="312" y="244" width="216" height="64" rx="12" fill="#ECFEFF" stroke="#22D3EE"/>
  <rect x="328" y="262" width="120" height="10" rx="5" fill="#0e7490" fill-opacity="0.25"/>
  <rect x="328" y="280" width="160" height="8" rx="4" fill="#334155" fill-opacity="0.15"/>
  <rect x="72" y="318" width="400" height="8" rx="4" fill="#64748b" fill-opacity="0.25"/>
</svg>
