<svg xmlns="http://www.w3.org/2000/svg" width="600" height="400" viewBox="0 0 600 400" fill="none">
  <defs>
    <linearGradient id="invH" x1="0" y1="0" x2="600" y2="400">
      <stop stop-color="#faf5ff"/>
      <stop offset="1" stop-color="#ede9fe"/>
    </linearGradient>
  </defs>
  <rect width="600" height="400" rx="24" fill="url(#invH)"/>
  <rect x="48" y="48" width="320" height="304" rx="16" fill="white" stroke="#c4b5fd" stroke-width="2"/>
  <rect x="68" y="72" width="180" height="12" rx="6" fill="#7c3aed" fill-opacity="0.25"/>
  <rect x="68" y="100" width="260" height="10" rx="5" fill="#64748b" fill-opacity="0.2"/>
  <rect x="68" y="124" width="240" height="10" rx="5" fill="#64748b" fill-opacity="0.2"/>
  <line x1="68" y1="152" x2="348" y2="152" stroke="#e9d5ff"/>
  <rect x="68" y="168" width="200" height="10" rx="5" fill="#1e1b4b" fill-opacity="0.1"/>
  <rect x="68" y="188" width="220" height="10" rx="5" fill="#1e1b4b" fill-opacity="0.1"/>
  <rect x="68" y="228" width="120" height="36" rx="8" fill="#8b5cf6"/>
  <rect x="392" y="48" width="160" height="88" rx="12" fill="#ede9fe" stroke="#a78bfa"/>
  <rect x="408" y="64" width="100" height="10" rx="5" fill="#6d28d9" fill-opacity="0.3"/>
  <rect x="392" y="152" width="160" height="88" rx="12" fill="#f5f3ff" stroke="#c4b5fd"/>
  <rect x="392" y="256" width="160" height="96" rx="12" fill="white" stroke="#ddd6fe"/>
  <rect x="408" y="276" width="120" height="8" rx="4" fill="#64748b" fill-opacity="0.25"/>
</svg>
