<svg xmlns="http://www.w3.org/2000/svg" width="600" height="400" viewBox="0 0 600 400" fill="none">
  <defs>
    <linearGradient id="posBg" x1="0" y1="0" x2="600" y2="400">
      <stop stop-color="#ecfdf5"/>
      <stop offset="1" stop-color="#d1fae5"/>
    </linearGradient>
  </defs>
  <rect width="600" height="400" rx="24" fill="url(#posBg)"/>
  <rect x="36" y="36" width="320" height="20" rx="10" fill="#065f46" fill-opacity="0.15"/>
  <rect x="36" y="64" width="480" height="12" rx="6" fill="#047857" fill-opacity="0.2"/>
  <rect x="36" y="92" width="528" height="268" rx="16" fill="white" stroke="#10b981" stroke-width="2"/>
  <rect x="52" y="112" width="160" height="12" rx="6" fill="#374151" fill-opacity="0.2"/>
  <rect x="420" y="112" width="100" height="10" rx="5" fill="#6b7280" fill-opacity="0.35"/>
  <line x1="52" y1="136" x2="548" y2="136" stroke="#e5e7eb"/>
  <rect x="52" y="150" width="280" height="14" rx="6" fill="#111827" fill-opacity="0.12"/>
  <rect x="460" y="150" width="72" height="14" rx="6" fill="#059669" fill-opacity="0.35"/>
  <rect x="52" y="176" width="240" height="14" rx="6" fill="#111827" fill-opacity="0.12"/>
  <rect x="460" y="176" width="72" height="14" rx="6" fill="#059669" fill-opacity="0.35"/>
  <rect x="52" y="218" width="80" height="12" rx="6" fill="#6b7280" fill-opacity="0.35"/>
  <rect x="460" y="218" width="72" height="12" rx="6" fill="#111827" fill-opacity="0.15"/>
  <rect x="52" y="238" width="60" height="12" rx="6" fill="#6b7280" fill-opacity="0.35"/>
  <rect x="460" y="238" width="72" height="12" rx="6" fill="#111827" fill-opacity="0.15"/>
  <rect x="52" y="272" width="496" height="36" rx="8" fill="#ecfdf5"/>
  <rect x="68" y="286" width="360" height="16" rx="8" fill="#065f46" fill-opacity="0.25"/>
  <rect x="52" y="328" width="420" height="10" rx="5" fill="#059669" fill-opacity="0.35"/>
</svg>
