<svg xmlns="http://www.w3.org/2000/svg" width="500" height="400" viewBox="0 0 500 400" fill="none">
  <rect width="500" height="400" rx="20" fill="#e7e5e4"/>
  <rect x="120" y="40" width="260" height="320" rx="4" fill="white" stroke="#d6d3d1"/>
  <rect x="160" y="60" width="180" height="10" rx="5" fill="#1c1917" fill-opacity="0.2"/>
  <rect x="180" y="78" width="140" height="8" rx="4" fill="#78716c" fill-opacity="0.35"/>
  <line x1="140" y1="102" x2="360" y2="102" stroke="#e7e5e4"/>
  <rect x="140" y="114" width="60" height="8" rx="4" fill="#44403c" fill-opacity="0.35"/>
  <rect x="300" y="114" width="40" height="8" rx="4" fill="#44403c" fill-opacity="0.35"/>
  <rect x="140" y="136" width="140" height="10" rx="5" fill="#292524" fill-opacity="0.2"/>
  <rect x="300" y="136" width="50" height="10" rx="5" fill="#292524" fill-opacity="0.2"/>
  <rect x="140" y="156" width="100" height="10" rx="5" fill="#292524" fill-opacity="0.2"/>
  <rect x="300" y="156" width="50" height="10" rx="5" fill="#292524" fill-opacity="0.2"/>
  <line x1="140" y1="188" x2="360" y2="188" stroke="#e7e5e4" stroke-dasharray="4 3"/>
  <rect x="140" y="200" width="50" height="12" rx="6" fill="#57534e" fill-opacity="0.35"/>
  <rect x="280" y="200" width="72" height="14" rx="7" fill="#059669" fill-opacity="0.35"/>
  <rect x="200" y="236" width="100" height="8" rx="4" fill="#44403c" fill-opacity="0.2"/>
  <rect x="200" y="256" width="100" height="6" rx="3" fill="#78716c" fill-opacity="0.3"/>
  <rect x="180" y="300" width="140" height="10" rx="5" fill="#059669" fill-opacity="0.3"/>
</svg>
