<svg xmlns="http://www.w3.org/2000/svg" width="500" height="400" viewBox="0 0 500 400" fill="none">
  <rect width="500" height="400" rx="20" fill="#f8fafc"/>
  <rect x="28" y="28" width="220" height="16" rx="8" fill="#0f766e" fill-opacity="0.2"/>
  <rect x="28" y="52" width="360" height="10" rx="5" fill="#64748b" fill-opacity="0.35"/>
  <rect x="28" y="84" width="220" height="280" rx="14" fill="white" stroke="#10b981" stroke-width="2"/>
  <rect x="44" y="104" width="100" height="10" rx="5" fill="#374151" fill-opacity="0.25"/>
  <rect x="44" y="128" width="56" height="44" rx="8" fill="#d1fae5"/>
  <rect x="108" y="128" width="56" height="44" rx="8" fill="#d1fae5"/>
  <rect x="172" y="128" width="56" height="44" rx="8" fill="#d1fae5"/>
  <rect x="44" y="200" width="100" height="8" rx="4" fill="#6b7280" fill-opacity="0.35"/>
  <rect x="44" y="218" width="188" height="36" rx="8" fill="#f1f5f9"/>
  <rect x="56" y="232" width="160" height="8" rx="4" fill="#64748b" fill-opacity="0.25"/>
  <rect x="44" y="270" width="188" height="44" rx="10" fill="#059669"/>
  <rect x="264" y="84" width="208" height="280" rx="14" fill="#ecfdf5" stroke="#34d399"/>
  <rect x="280" y="108" width="120" height="10" rx="5" fill="#065f46" fill-opacity="0.3"/>
  <rect x="280" y="136" width="180" height="12" rx="6" fill="#111827" fill-opacity="0.12"/>
  <rect x="280" y="158" width="160" height="12" rx="6" fill="#111827" fill-opacity="0.12"/>
  <rect x="280" y="180" width="120" height="12" rx="6" fill="#111827" fill-opacity="0.12"/>
  <rect x="280" y="320" width="180" height="10" rx="5" fill="#059669" fill-opacity="0.35"/>
</svg>
