<svg xmlns="http://www.w3.org/2000/svg" width="600" height="400" viewBox="0 0 600 400" fill="none">
  <defs>
    <linearGradient id="gzBg" x1="0" y1="0" x2="600" y2="400" gradientUnits="userSpaceOnUse">
      <stop stop-color="#1e1b4b"/>
      <stop offset="1" stop-color="#4c1d95"/>
    </linearGradient>
  </defs>
  <rect width="600" height="400" rx="24" fill="url(#gzBg)"/>
  <rect x="40" y="40" width="520" height="36" rx="10" fill="#4c1d95" fill-opacity="0.5"/>
  <rect x="40" y="88" width="520" height="262" rx="16" fill="#0f172a" fill-opacity="0.85" stroke="#7c3aed" stroke-width="2"/>
  <rect x="60" y="112" width="120" height="10" rx="5" fill="#a78bfa" fill-opacity="0.5"/>
  <rect x="60" y="132" width="240" height="14" rx="6" fill="#e2e8f0" fill-opacity="0.15"/>
  <rect x="60" y="156" width="200" height="8" rx="4" fill="#334155"/>
  <rect x="60" y="156" width="140" height="8" rx="4" fill="#a855f7"/>
  <rect x="60" y="180" width="80" height="8" rx="4" fill="#475569"/>
  <rect x="300" y="112" width="100" height="10" rx="5" fill="#a78bfa" fill-opacity="0.5"/>
  <rect x="300" y="132" width="220" height="12" rx="6" fill="#f8fafc" fill-opacity="0.12"/>
  <rect x="300" y="152" width="200" height="12" rx="6" fill="#cbd5e1" fill-opacity="0.2"/>
  <rect x="300" y="172" width="180" height="12" rx="6" fill="#cbd5e1" fill-opacity="0.15"/>
  <rect x="60" y="220" width="100" height="10" rx="5" fill="#a78bfa" fill-opacity="0.5"/>
  <rect x="60" y="240" width="280" height="10" rx="5" fill="#e2e8f0" fill-opacity="0.2"/>
  <rect x="60" y="288" width="400" height="8" rx="4" fill="#64748b" fill-opacity="0.35"/>
</svg>
