<svg xmlns="http://www.w3.org/2000/svg" width="500" height="400" viewBox="0 0 500 400" fill="none">
  <rect width="500" height="400" rx="20" fill="#0f172a"/>
  <rect x="32" y="32" width="180" height="16" rx="8" fill="#fcd34d" fill-opacity="0.3"/>
  <rect x="32" y="56" width="360" height="10" rx="5" fill="#94a3b8" fill-opacity="0.35"/>
  <rect x="32" y="90" width="200" height="120" rx="14" fill="#1e293b" stroke="#a855f7"/>
  <rect x="72" y="130" width="120" height="12" rx="6" fill="#e9d5ff" fill-opacity="0.25"/>
  <rect x="92" y="152" width="80" height="8" rx="4" fill="#cbd5e1" fill-opacity="0.3"/>
  <rect x="252" y="90" width="216" height="120" rx="14" fill="#1e293b" stroke="#a855f7"/>
  <rect x="292" y="130" width="136" height="12" rx="6" fill="#e9d5ff" fill-opacity="0.25"/>
  <rect x="312" y="152" width="96" height="8" rx="4" fill="#cbd5e1" fill-opacity="0.3"/>
  <rect x="32" y="230" width="436" height="100" rx="14" fill="#312e81"/>
  <rect x="48" y="252" width="80" height="10" rx="5" fill="#a78bfa" fill-opacity="0.5"/>
  <rect x="48" y="272" width="220" height="20" rx="8" fill="#f8fafc" fill-opacity="0.15"/>
  <rect x="48" y="302" width="340" height="8" rx="4" fill="#94a3b8" fill-opacity="0.35"/>
</svg>
