<svg xmlns="http://www.w3.org/2000/svg" width="600" height="400" viewBox="0 0 600 400" fill="none">
  <defs>
    <linearGradient id="distBg" x1="0" y1="0" x2="600" y2="400">
      <stop stop-color="#eff6ff"/>
      <stop offset="1" stop-color="#dbeafe"/>
    </linearGradient>
  </defs>
  <rect width="600" height="400" rx="24" fill="url(#distBg)"/>
  <rect x="36" y="36" width="280" height="18" rx="9" fill="#1e40af" fill-opacity="0.15"/>
  <rect x="36" y="62" width="420" height="12" rx="6" fill="#2563eb" fill-opacity="0.2"/>
  <rect x="36" y="90" width="528" height="268" rx="16" fill="white" stroke="#3b82f6" stroke-width="2"/>
  <rect x="52" y="110" width="220" height="12" rx="6" fill="#1e3a8a" fill-opacity="0.2"/>
  <rect x="400" y="110" width="100" height="10" rx="5" fill="#64748b" fill-opacity="0.35"/>
  <rect x="52" y="136" width="360" height="12" rx="6" fill="#334155" fill-opacity="0.2"/>
  <rect x="52" y="158" width="400" height="10" rx="5" fill="#64748b" fill-opacity="0.25"/>
  <rect x="52" y="196" width="496" height="10" rx="5" fill="#e2e8f0"/>
  <rect x="52" y="196" width="310" height="10" rx="5" fill="#3b82f6"/>
  <rect x="52" y="218" width="280" height="10" rx="5" fill="#475569" fill-opacity="0.25"/>
  <rect x="52" y="256" width="200" height="10" rx="5" fill="#1e40af" fill-opacity="0.25"/>
  <rect x="52" y="278" width="420" height="12" rx="6" fill="#334155" fill-opacity="0.15"/>
  <rect x="52" y="298" width="380" height="12" rx="6" fill="#334155" fill-opacity="0.12"/>
  <rect x="52" y="332" width="440" height="10" rx="5" fill="#2563eb" fill-opacity="0.25"/>
</svg>
