<svg xmlns="http://www.w3.org/2000/svg" width="500" height="400" viewBox="0 0 500 400" fill="none">
  <rect width="500" height="400" rx="20" fill="#f8fafc"/>
  <rect x="28" y="28" width="200" height="16" rx="8" fill="#1d4ed8" fill-opacity="0.2"/>
  <rect x="28" y="52" width="280" height="10" rx="5" fill="#64748b" fill-opacity="0.35"/>
  <rect x="28" y="84" width="444" height="280" rx="14" fill="white" stroke="#93c5fd"/>
  <rect x="48" y="108" width="180" height="12" rx="6" fill="#0f172a" fill-opacity="0.12"/>
  <path d="M60 200 L160 140 L280 180 L400 120" stroke="#2563eb" stroke-width="3" fill="none" stroke-linecap="round"/>
  <circle cx="160" cy="140" r="10" fill="#3b82f6"/>
  <circle cx="280" cy="180" r="10" fill="#60a5fa"/>
  <circle cx="400" cy="120" r="10" fill="#93c5fd"/>
  <rect x="175" y="118" width="120" height="8" rx="4" fill="#1e293b" fill-opacity="0.15"/>
  <rect x="295" y="165" width="140" height="8" rx="4" fill="#1e293b" fill-opacity="0.15"/>
  <rect x="48" y="268" width="380" height="10" rx="5" fill="#475569" fill-opacity="0.25"/>
  <rect x="48" y="328" width="300" height="10" rx="5" fill="#2563eb" fill-opacity="0.35"/>
</svg>
