<svg xmlns="http://www.w3.org/2000/svg" width="500" height="400" viewBox="0 0 500 400" fill="none">
  <rect width="500" height="400" rx="20" fill="#eff6ff"/>
  <rect x="28" y="28" width="220" height="16" rx="8" fill="#1e40af" fill-opacity="0.2"/>
  <rect x="28" y="52" width="300" height="10" rx="5" fill="#64748b" fill-opacity="0.35"/>
  <rect x="28" y="88" width="200" height="200" rx="12" fill="white" stroke="#3b82f6"/>
  <rect x="48" y="108" width="140" height="10" rx="5" fill="#1e3a8a" fill-opacity="0.2"/>
  <rect x="48" y="128" width="160" height="8" rx="4" fill="#334155" fill-opacity="0.2"/>
  <rect x="48" y="144" width="140" height="8" rx="4" fill="#334155" fill-opacity="0.15"/>
  <rect x="48" y="180" width="160" height="28" rx="6" fill="#dbeafe"/>
  <rect x="244" y="88" width="228" height="200" rx="12" fill="white" stroke="#60a5fa"/>
  <rect x="260" y="108" width="100" height="10" rx="5" fill="#1e3a8a" fill-opacity="0.2"/>
  <rect x="260" y="132" width="180" height="8" rx="4" fill="#334155" fill-opacity="0.18"/>
  <rect x="260" y="150" width="200" height="8" rx="4" fill="#334155" fill-opacity="0.15"/>
  <rect x="260" y="184" width="200" height="10" rx="5" fill="#059669" fill-opacity="0.25"/>
  <rect x="28" y="304" width="444" height="72" rx="12" fill="#1e40af" fill-opacity="0.08"/>
  <rect x="44" y="324" width="380" height="10" rx="5" fill="#1e40af" fill-opacity="0.35"/>
  <rect x="44" y="348" width="300" height="8" rx="4" fill="#475569" fill-opacity="0.3"/>
</svg>
